<svg width="1547" height="1547" viewBox="0 0 1547 1547" fill="none" xmlns="http://www.w3.org/2000/svg">
<rect x="138.894" y="113.585" width="1272.89" height="1342.77" fill="black"/>
<path d="M1356.97 0C1461.9 7.97019e-05 1546.97 85.0661 1546.97 190V1356.97C1546.97 1461.9 1461.9 1546.97 1356.97 1546.97H190C85.0659 1546.97 0 1461.9 0 1356.97V190C0.000145713 85.066 85.066 0 190 0H1356.97ZM788.584 1027C788.584 1060.7 778.471 1088.51 758.247 1110.42C738.865 1131.49 711.057 1142.02 674.821 1142.02C638.586 1142.02 610.355 1131.49 590.131 1110.42C570.749 1088.51 561.059 1060.7 561.059 1027V968.85H328.477V1019.41C328.477 1091.88 341.96 1153.82 368.926 1205.22C396.734 1255.78 436.34 1294.55 487.744 1321.51C539.991 1348.48 602.771 1361.96 676.085 1361.96C750.241 1361.96 813.022 1348.48 864.426 1321.51C915.83 1294.55 955.014 1255.78 981.98 1205.22C1009.79 1153.82 1023.69 1091.88 1023.69 1019.41L1023.69 756.072C952.571 758.342 870.699 752.977 788.584 740.04V1027ZM668.335 185.005C610.322 192.959 600.501 259.717 591.925 318.024C588.954 338.222 586.132 357.406 581.507 372.779C526.527 379.559 390.805 399.946 395.294 479.048C396.81 505.76 434.013 539.287 454.79 554.349C602.51 656.864 876.885 699.989 1051.73 687.901C1110.83 685.646 1218.72 670.757 1260.46 624.488C1325.47 552.428 1182.08 477.597 1128.8 454.872C1122.52 452.151 1117.35 449.513 1111.81 446.054C1097.69 412.102 1088.73 372.95 1080.19 335.62C1078.56 328.484 1076.94 321.415 1075.3 314.461C1073.64 307.369 1072.15 299.676 1070.6 291.688C1062.96 252.242 1053.93 205.612 1015.2 188.701C991.753 178.461 958.984 191.91 938.103 202.386C882.426 230.188 839.817 250.741 776.304 229.621C761.279 224.625 747.539 216.784 734.003 209.06C712.971 197.058 692.433 185.339 668.335 185.005ZM566.712 416.771C571.77 417.823 577.829 419.923 583.728 421.968C587.357 423.227 590.953 424.472 594.193 425.431C741.999 469.163 901.431 500.125 1055.95 488.291C1074.41 486.877 1100.95 483.943 1118.34 478.683C1118.94 479.818 1119.61 481.095 1120.35 482.491L1120.39 482.571C1128.53 497.981 1144.25 527.736 1143.15 540.492C1139.34 546.41 1132.26 547.846 1125.2 549.279C1123.95 549.533 1122.7 549.787 1121.47 550.064C1096.56 554.552 1071.44 557.691 1046.19 559.467C907.573 569.54 741.856 548.128 609.361 503.664C586.594 496.024 555.73 484.521 537.674 468.938C541.833 459.728 547.282 450.666 552.795 441.498C557.666 433.397 562.588 425.214 566.712 416.771Z" fill="#FFD700"/>
</svg>
